# xmcd
# 
# Track frame offsets:
#     150
#     50958
#     79824
#     91983
#     148019
#     194759
#     212583
#     239467
#     253748
#     274093
# 
# Disc length: 3994
# 
# Revision: 1
# Processed by: cddbd v1.5.2PL0 Copyright (c) Steve Scherf et al.
# Submitted via: fre:ac v1.0.31
# 
DISCID=9b0f980a
DTITLE=Jazz - All Time Greatest Jazz Ballads Disc 2
DYEAR=0
DGENRE=Jazz
TTITLE0=Mood Indigo - Kenny Davern and Joe Temperly
TTITLE1=Summertime - Milt Hinton
TTITLE2=Lush Life - Geno Bertoncini
TTITLE3=Georgia On My Mind - Junior Mance
TTITLE4=Lover Man - Jess Stacy
TTITLE5=Misty - Dorothy Donegan
TTITLE6=Prelude To a Kiss - Earl Hines
TTITLE7=Softly As In the Morning Sunrise - John Eaton
TTITLE8=I Got ItBad and That Ain't Good - Bobby Hackett
TTITLE9=My Foolish Heart - Johnny Frigo
EXTD=
EXTT0=
EXTT1=
EXTT2=
EXTT3=
EXTT4=
EXTT5=
EXTT6=
EXTT7=
EXTT8=
EXTT9=
PLAYORDER=
